<svg xmlns="http://www.w3.org/2000/svg" width="300" height="300" viewBox="0 0 300 300"><rect width="100%" height="100%" fill="#DDDDDD"/><path fill="#999999" d="M68.795 150.325h4.53q1.66 0 2.9-.41 1.24-.42 2.06-1.2.82-.77 1.22-1.89.41-1.11.41-2.48 0-1.31-.41-2.36-.4-1.06-1.21-1.8-.81-.75-2.05-1.14-1.24-.4-2.92-.4h-4.53zm-6.05-16.35h10.58q3.26 0 5.64.76 2.39.77 3.94 2.14t2.31 3.28q.75 1.92.75 4.19 0 2.36-.79 4.33-.78 1.97-2.36 3.38-1.57 1.42-3.95 2.21-2.37.79-5.54.79h-4.53v11.45h-6.05zm27.16 9.44h5.58v23.09h-5.58zm6.34-6.72q0 .72-.29 1.35t-.78 1.1q-.48.47-1.13.75-.65.29-1.4.29-.72 0-1.36-.29-.64-.28-1.11-.75t-.76-1.1q-.28-.63-.28-1.35 0-.74.28-1.4.29-.65.76-1.12t1.11-.76q.64-.28 1.36-.28.75 0 1.4.28.65.29 1.13.76.49.47.78 1.12.29.66.29 1.4m22.91 9.58-1.46 2.03q-.25.31-.49.49-.23.18-.68.18-.43 0-.84-.26-.4-.25-.96-.58-.57-.33-1.34-.59-.78-.25-1.93-.25-1.46 0-2.56.52-1.1.53-1.84 1.52-.73.99-1.09 2.4-.36 1.4-.36 3.18 0 1.85.4 3.29.39 1.44 1.13 2.42.75.97 1.8 1.48 1.06.51 2.39.51t2.15-.33q.82-.32 1.38-.72.56-.39.98-.72.42-.32.93-.32.68 0 1.02.51l1.59 2.03q-.92 1.08-2 1.81t-2.24 1.17-2.38.62q-1.23.18-2.44.18-2.14 0-4.03-.8t-3.31-2.33-2.24-3.75q-.82-2.21-.82-5.05 0-2.54.73-4.71t2.15-3.76q1.42-1.58 3.51-2.48 2.09-.91 4.82-.91 2.58 0 4.53.84 1.95.83 3.5 2.38m11.38 20.59q-3.01 0-4.62-1.7t-1.61-4.69v-12.89h-2.36q-.45 0-.77-.29-.31-.3-.31-.88v-2.21l3.71-.6 1.17-6.3q.11-.45.43-.7.31-.25.81-.25h2.88v7.27h6.16v3.96h-6.16v12.51q0 1.08.53 1.69.53.6 1.45.6.52 0 .86-.12.35-.13.61-.26t.46-.26q.21-.12.41-.12.25 0 .4.12.16.13.34.37l1.67 2.7q-1.22 1.02-2.79 1.53-1.58.52-3.27.52m23.38-23.45h5.56v23.09h-3.4q-1.1 0-1.39-1.01l-.39-1.85q-1.41 1.44-3.12 2.33t-4.03.89q-1.89 0-3.34-.64t-2.44-1.81-1.5-2.78-.51-3.54v-14.68h5.56v14.68q0 2.11.98 3.27t2.94 1.16q1.44 0 2.7-.64t2.38-1.77zm15.95 1.4.34 2.61q1.08-2.07 2.57-3.25 1.48-1.18 3.51-1.18 1.59 0 2.56.7l-.36 4.16q-.11.4-.33.57-.21.17-.57.17-.34 0-1-.11t-1.29-.11q-.93 0-1.65.27t-1.29.77q-.57.51-1.01 1.23t-.82 1.64v14.22h-5.56v-23.09h3.26q.86 0 1.19.31.34.3.45 1.09m16.27 7.49h10.49q0-1.08-.31-2.03-.3-.96-.91-1.68t-1.54-1.14q-.93-.41-2.17-.41-2.41 0-3.79 1.37-1.39 1.37-1.77 3.89m14.18 3.36h-14.29q.13 1.77.63 3.07.49 1.29 1.3 2.13.81.85 1.93 1.26 1.11.42 2.46.42t2.33-.31q.98-.32 1.71-.7t1.28-.7q.55-.31 1.07-.31.7 0 1.04.51l1.59 2.03q-.92 1.08-2.07 1.81-1.14.73-2.39 1.17t-2.55.62q-1.29.18-2.5.18-2.41 0-4.48-.8t-3.6-2.36q-1.53-1.57-2.41-3.87-.88-2.31-.88-5.35 0-2.36.77-4.44.76-2.08 2.19-3.62t3.49-2.44q2.06-.91 4.65-.91 2.18 0 4.02.7 1.85.7 3.18 2.04 1.32 1.34 2.08 3.28.75 1.95.75 4.45 0 1.26-.27 1.7t-1.03.44m31.09 6.68h5.85v4.16h-18v-4.16h6.59v-18.97q0-1.12.07-2.32l-4.68 3.92q-.4.31-.8.39-.39.08-.74.01t-.62-.23q-.27-.17-.4-.37l-1.76-2.41 9.92-8.44h4.57z"/></svg>